{"title":"Vivahit Jeevan And Sex Clinic (2015) - 1CD - HDRip - x264 - MP3 ","uid":12154735,"size":674400934,"categoryP":"video","categoryS":"movies","magnet":"?xt=urn:btih:d5a43b02a03e30d100436a5229da1306d7cea812&amp;dn=Vivahit+Jeevan+And+Sex+Clinic+%282015%29+-+1CD+-+HDRip+-+x264+-+MP3+&amp;tr=udp%3A%2F%2Ftracker.openbittorrent.com%3A80&amp;tr=udp%3A%2F%2Fopen.demonii.com%3A1337&amp;tr=udp%3A%2F%2Ftracker.coppersurfer.tk%3A6969&amp;tr=udp%3A%2F%2Fexodus.desync.com%3A6969","seeders":1,"leechers":6,"uploader":"makintos13","files":1,"time":1437749253,"description":" &lt;a href=&quot;http://imgmak.com/fq&quot; rel=&quot;nofollow&quot; target=&quot;_NEW&quot;&gt;http://imgmak.com/fq&lt;/a&gt;\n &lt;a href=&quot;\nhttp://imgmak.com/ft&quot; rel=&quot;nofollow&quot; target=&quot;_NEW&quot;&gt;\nhttp://imgmak.com/ft&lt;/a&gt;\n &lt;a href=&quot;\nhttp://imgmak.com/f2&quot; rel=&quot;nofollow&quot; target=&quot;_NEW&quot;&gt;\nhttp://imgmak.com/f2&lt;/a&gt;\n &lt;a href=&quot;\nhttp://imgmak.com/fF&quot; rel=&quot;nofollow&quot; target=&quot;_NEW&quot;&gt;\nhttp://imgmak.com/fF&lt;/a&gt;\n &lt;a href=&quot;\nhttp://imgmak.com/fi&quot; rel=&quot;nofollow&quot; target=&quot;_NEW&quot;&gt;\nhttp://imgmak.com/fi&lt;/a&gt;\n\n:::::::::;;;\n\n Format                                   : Matroska\nFormat version                           : Version 4 / Version 2\nFile size                                : 643 MiB\nDuration                                 : 1h 25mn\nOverall bit rate                         : 1 051 Kbps\nv1.4.2\nDURATION                                 : 01:25:33.533000000\n\nVideo\nID                                       : 2\nFormat                                   : AVC\nFormat/Info                              : Advanced Video Codec\nFormat profile                           : &lt;a class=&quot;__cf_email__&quot; href=&quot;/cdn-cgi/l/email-protection&quot; data-cfemail=&quot;e1a9888689a1add5cfd0&quot;&gt;[email&amp;#160;protected]&lt;/a&gt;&lt;script data-cfhash='f9e31' type=&quot;text/javascript&quot;&gt;\n/* &lt;![CDATA[ */!function(){try{var t=&quot;currentScript&quot;in document?document.currentScript:function(){for(var t=document.getElementsByTagName(&quot;script&quot;),e=t.length;e--;)if(t[e].getAttribute(&quot;data-cfhash&quot;))return t[e]}();if(t&amp;&amp;t.previousSibling){var e,r,n,i,c=t.previousSibling,a=c.getAttribute(&quot;data-cfemail&quot;);if(a){for(e=&quot;&quot;,r=parseInt(a.substr(0,2),16),n=2;a.length-n;n+=2)i=parseInt(a.substr(n,2),16)^r,e+=String.fromCharCode(i);e=document.createTextNode(e),c.parentNode.replaceChild(e,c)}t.parentNode.removeChild(t);}}catch(u){}}()/* ]]&gt; */&lt;/script&gt;\nFormat settings, CABAC                   : Yes\nFormat settings, ReFrames                : 4 frames\nCodec ID                                 : V_MPEG4/ISO/AVC\nDuration                                 : 1h 25mn\nBit rate                                 : 1 009 Kbps\nWidth                                    : 640 pixels\nHeight                                   : 272 pixels\nDisplay aspect ratio                     : 2.35:1\nFrame rate mode                          : Constant\nFrame rate                               : 30.000 fps\nColor space                              : YUV\nChroma subsampling                       : 4:2:0\nBit depth                                : 8 bits\nScan type                                : Progressive\nBits/(Pixel*Frame)                       : 0.193\nStream size                              : 606 MiB (94%)\nip_ratio=1.40 / aq=1:1.00\nDefault                                  : Yes\nForced                                   : No\n\nAudio\nID                                       : 1\nFormat                                   : MPEG Audio\nFormat version                           : Version 2\nFormat profile                           : Layer 3\nMode                                     : Joint stereo\nMode extension                           : MS Stereo\nCodec ID                                 : A_MPEG/L3\nCodec ID/Hint                            : MP3\nDuration                                 : 1h 25mn\nBit rate mode                            : Constant\nBit rate                                 : 40.0 Kbps\nChannel(s)                               : 2 channels\nSampling rate                            : 16.0 KHz\nCompression mode                         : Lossy\nStream size                              : 24.5 MiB (4%)\nWriting library                          : LAME3.99r\nEncoding settings                        : -m j -V 4 -q 2 -lowpass 7 -b 40\nDefault                                  : Yes\nForced                                   : No","torrent":{"xt":"urn:btih:d5a43b02a03e30d100436a5229da1306d7cea812","amp;dn":"Vivahit+Jeevan+And+Sex+Clinic+%282015%29+-+1CD+-+HDRip+-+x264+-+MP3+","amp;tr":["udp%3A%2F%2Ftracker.openbittorrent.com%3A80","udp%3A%2F%2Fopen.demonii.com%3A1337","udp%3A%2F%2Ftracker.coppersurfer.tk%3A6969","udp%3A%2F%2Fexodus.desync.com%3A6969"],"infoHash":"d5a43b02a03e30d100436a5229da1306d7cea812","infoHashBuffer":{"type":"Buffer","data":[213,164,59,2,160,62,48,209,0,67,106,82,41,218,19,6,215,206,168,18]},"announce":[],"urlList":[]}}